<?xml version='1.0' encoding='utf-8'?>
<!-- Generator: Adobe Illustrator 27.3.1, SVG Export Plug-In . SVG Version: 6.00 Build 0)  -->
<svg xml:space="preserve" x="0px" version="1.1" viewBox="0 0 202.9 64" style="enable-background:new 0 0 202.9 64;" id="_Слой_1" xmlns:xlink="http://www.w3.org/1999/xlink" y="0px" xmlns="http://www.w3.org/2000/svg">
 <style type="text/css">&#xd;
	.st0{fill:#E6E9EC;}&#xd;
	.st1{fill:none;stroke:#D9DFE3;}&#xd;
	.st2{fill:#1D2228;}&#xd;
</style>
 <rect height="64" class="st0" y="0" width="202.9"/>
 <line x2="0.7" x1="202.7" class="st1" y1="64" y2="64"/>
 <g>
  <path class="st2" d="M-70.5,132.5v-11.4h7.3v1.6h-5.6v9.9L-70.5,132.5L-70.5,132.5z"/>
  <path class="st2" d="M-59.3,132.7c-0.9,0-1.6-0.2-2.2-0.6c-0.6-0.4-1.1-0.9-1.5-1.6c-0.3-0.7-0.5-1.5-0.5-2.4&#xd;&#xa;&#x9;&#x9;c0-0.9,0.2-1.7,0.5-2.4c0.3-0.7,0.8-1.2,1.5-1.6c0.6-0.4,1.4-0.6,2.2-0.6c0.9,0,1.6,0.2,2.2,0.6c0.6,0.4,1.1,0.9,1.5,1.6&#xd;&#xa;&#x9;&#x9;c0.3,0.7,0.5,1.5,0.5,2.3c0,0.9-0.2,1.7-0.5,2.4c-0.3,0.7-0.8,1.2-1.5,1.6C-57.7,132.5-58.4,132.7-59.3,132.7z M-59.3,131.2&#xd;&#xa;&#x9;&#x9;c0.8,0,1.4-0.3,1.8-0.8c0.4-0.6,0.6-1.3,0.6-2.1c0-0.9-0.2-1.6-0.6-2.1c-0.4-0.5-1-0.8-1.8-0.8c-0.6,0-1,0.1-1.4,0.4&#xd;&#xa;&#x9;&#x9;c-0.4,0.3-0.6,0.6-0.8,1s-0.3,1-0.3,1.5c0,0.9,0.2,1.6,0.6,2.2C-60.7,130.9-60.1,131.2-59.3,131.2z"/>
  <path class="st2" d="M-49.5,132.7c-0.9,0-1.6-0.2-2.2-0.6c-0.6-0.4-1.1-0.9-1.4-1.6c-0.3-0.7-0.5-1.5-0.5-2.3&#xd;&#xa;&#x9;&#x9;c0-0.9,0.2-1.7,0.5-2.3c0.3-0.7,0.8-1.2,1.4-1.6c0.6-0.4,1.4-0.6,2.2-0.6c0.9,0,1.7,0.2,2.4,0.7s1.1,1.1,1.3,1.9l-1.6,0.5&#xd;&#xa;&#x9;&#x9;c-0.2-0.5-0.4-0.9-0.8-1.1c-0.4-0.3-0.8-0.4-1.3-0.4s-1,0.1-1.3,0.4c-0.3,0.3-0.6,0.6-0.8,1.1c-0.2,0.4-0.3,1-0.3,1.5&#xd;&#xa;&#x9;&#x9;c0,0.9,0.2,1.6,0.6,2.1c0.4,0.5,1,0.8,1.8,0.8c0.5,0,1-0.1,1.3-0.4c0.3-0.2,0.6-0.6,0.8-1.1l1.7,0.4c-0.3,0.8-0.7,1.5-1.4,1.9&#xd;&#xa;&#x9;&#x9;C-47.8,132.5-48.6,132.7-49.5,132.7z"/>
  <path class="st2" d="M-41.8,132.5v-7.1h-2.9v-1.5h7.5v1.5h-2.9v7.1H-41.8z"/>
  <path class="st2" d="M-28.4,123.9v8.6h-1.5v-6l-4.3,6h-1.3v-8.6h1.6v5.9l4.3-5.8h1.2V123.9z"/>
  <path class="st2" d="M-26,132.5v-8.6h1.7v3.5h4.2v-3.5h1.7v8.6h-1.7V129h-4.2v3.5C-24.3,132.5-26,132.5-26,132.5z"/>
  <path class="st2" d="M-13.6,132.7c-0.6,0-1.2-0.1-1.6-0.4c-0.4-0.2-0.8-0.5-1-0.9c-0.2-0.4-0.3-0.8-0.3-1.3c0-0.4,0.1-0.8,0.2-1.1&#xd;&#xa;&#x9;&#x9;c0.2-0.3,0.4-0.6,0.7-0.8c0.3-0.2,0.7-0.4,1.1-0.6c0.4-0.1,0.8-0.2,1.3-0.3s1-0.2,1.5-0.2c0.5-0.1,1.1-0.1,1.6-0.2l-0.6,0.3&#xd;&#xa;&#x9;&#x9;c0-0.7-0.1-1.2-0.4-1.5c-0.3-0.3-0.8-0.5-1.5-0.5c-0.4,0-0.9,0.1-1.2,0.3c-0.4,0.2-0.6,0.6-0.8,1l-1.5-0.5c0.2-0.7,0.6-1.3,1.2-1.8&#xd;&#xa;&#x9;&#x9;c0.6-0.4,1.4-0.6,2.4-0.6c0.8,0,1.4,0.1,2,0.4c0.6,0.3,1,0.7,1.2,1.2c0.1,0.3,0.2,0.6,0.3,0.9c0,0.3,0,0.6,0,1v5.3h-1.5v-2l0.3,0.3&#xd;&#xa;&#x9;&#x9;c-0.4,0.7-0.8,1.1-1.4,1.5S-12.8,132.7-13.6,132.7z M-13.3,131.4c0.5,0,0.9-0.1,1.2-0.2c0.3-0.2,0.6-0.4,0.8-0.6s0.3-0.5,0.4-0.8&#xd;&#xa;&#x9;&#x9;c0.1-0.3,0.1-0.5,0.2-0.9c0-0.3,0-0.6,0-0.8l0.5,0.2c-0.5,0.1-1,0.2-1.4,0.2c-0.4,0.1-0.8,0.1-1.2,0.2c-0.3,0.1-0.7,0.1-0.9,0.2&#xd;&#xa;&#x9;&#x9;c-0.2,0.1-0.4,0.2-0.6,0.3c-0.2,0.1-0.3,0.2-0.4,0.4c-0.1,0.2-0.2,0.4-0.2,0.6s0.1,0.4,0.2,0.6s0.3,0.3,0.5,0.4&#xd;&#xa;&#x9;&#x9;C-14,131.3-13.7,131.4-13.3,131.4z"/>
  <path class="st2" d="M-7.3,132.5l2.2-3.4h1.8l-2.1,3.4H-7.3z M-1.6,132.5v-3h-1.7c-0.2,0-0.4,0-0.7,0c-0.3,0-0.5,0-0.8-0.1&#xd;&#xa;&#x9;&#x9;c-0.6-0.1-1.2-0.4-1.6-0.8c-0.4-0.4-0.6-1.1-0.6-1.8c0-0.7,0.2-1.4,0.6-1.8c0.4-0.5,0.9-0.8,1.5-0.9c0.3-0.1,0.5-0.1,0.8-0.1&#xd;&#xa;&#x9;&#x9;s0.5,0,0.7,0H0v8.6h-1.6V132.5z M-3.5,128.2h1.8v-2.9h-1.8c-0.1,0-0.3,0-0.4,0c-0.2,0-0.3,0-0.5,0.1c-0.2,0-0.3,0.1-0.5,0.3&#xd;&#xa;&#x9;&#x9;c-0.2,0.1-0.3,0.3-0.4,0.5c-0.1,0.2-0.1,0.4-0.1,0.6c0,0.4,0.1,0.7,0.3,0.9c0.2,0.2,0.5,0.4,0.7,0.5c0.2,0,0.3,0.1,0.5,0.1&#xd;&#xa;&#x9;&#x9;C-3.7,128.2-3.6,128.2-3.5,128.2z"/>
 </g>
 <g>
  <path class="st2" d="M32.4,168.9v-11.4h7.3v1.6h-5.6v9.9h-1.7V168.9z"/>
  <path class="st2" d="M43.6,169.2c-0.9,0-1.6-0.2-2.2-0.6c-0.6-0.4-1.1-0.9-1.5-1.6c-0.3-0.7-0.5-1.5-0.5-2.4c0-0.9,0.2-1.7,0.5-2.4&#xd;&#xa;&#x9;&#x9;s0.8-1.2,1.5-1.6c0.6-0.4,1.4-0.6,2.2-0.6c0.9,0,1.6,0.2,2.2,0.6c0.6,0.4,1.1,0.9,1.5,1.6c0.3,0.7,0.5,1.5,0.5,2.3&#xd;&#xa;&#x9;&#x9;c0,0.9-0.2,1.7-0.5,2.4c-0.3,0.7-0.8,1.2-1.5,1.6C45.2,169,44.5,169.2,43.6,169.2z M43.6,167.6c0.8,0,1.4-0.3,1.8-0.8&#xd;&#xa;&#x9;&#x9;c0.4-0.6,0.6-1.3,0.6-2.1c0-0.9-0.2-1.6-0.6-2.1c-0.4-0.5-1-0.8-1.8-0.8c-0.6,0-1,0.1-1.4,0.4s-0.6,0.6-0.8,1&#xd;&#xa;&#x9;&#x9;c-0.2,0.4-0.3,1-0.3,1.5c0,0.9,0.2,1.6,0.6,2.2C42.2,167.3,42.8,167.6,43.6,167.6z"/>
  <path class="st2" d="M53.4,169.2c-0.9,0-1.6-0.2-2.2-0.6c-0.6-0.4-1.1-0.9-1.4-1.6c-0.3-0.7-0.5-1.5-0.5-2.3c0-0.9,0.2-1.7,0.5-2.3&#xd;&#xa;&#x9;&#x9;c0.3-0.7,0.8-1.2,1.4-1.6c0.6-0.4,1.4-0.6,2.2-0.6c0.9,0,1.7,0.2,2.4,0.7s1.1,1.1,1.3,1.9l-1.6,0.4c-0.2-0.5-0.4-0.9-0.8-1.1&#xd;&#xa;&#x9;&#x9;c-0.4-0.3-0.8-0.4-1.3-0.4s-1,0.1-1.3,0.4c-0.3,0.3-0.6,0.6-0.8,1.1c-0.2,0.4-0.3,1-0.3,1.5c0,0.9,0.2,1.6,0.6,2.1&#xd;&#xa;&#x9;&#x9;c0.4,0.5,1,0.8,1.8,0.8c0.5,0,1-0.1,1.3-0.4c0.3-0.2,0.6-0.6,0.8-1.1l1.7,0.4c-0.3,0.8-0.7,1.5-1.4,1.9&#xd;&#xa;&#x9;&#x9;C55.1,169,54.3,169.2,53.4,169.2z"/>
  <path class="st2" d="M61.1,168.9v-7.1h-2.9v-1.5h7.5v1.5h-2.9v7.1H61.1z"/>
  <path class="st2" d="M74.5,160.4v8.6H73v-6l-4.3,6h-1.3v-8.6H69v5.8l4.3-5.8H74.5z"/>
  <path class="st2" d="M76.9,168.9v-8.6h1.7v3.5h4.2v-3.5h1.7v8.6h-1.7v-3.5h-4.2v3.5C78.6,168.9,76.9,168.9,76.9,168.9z"/>
  <path class="st2" d="M89.3,169.2c-0.6,0-1.2-0.1-1.6-0.4c-0.4-0.2-0.8-0.5-1-0.9c-0.2-0.4-0.3-0.8-0.3-1.3c0-0.4,0.1-0.8,0.2-1.1&#xd;&#xa;&#x9;&#x9;c0.2-0.3,0.4-0.6,0.7-0.8c0.3-0.2,0.7-0.4,1.1-0.6c0.4-0.1,0.8-0.2,1.3-0.3c0.5-0.1,1-0.2,1.5-0.2c0.5-0.1,1.1-0.1,1.6-0.2&#xd;&#xa;&#x9;&#x9;l-0.6,0.3c0-0.7-0.1-1.2-0.4-1.5s-0.8-0.5-1.5-0.5c-0.4,0-0.9,0.1-1.2,0.3c-0.4,0.2-0.6,0.6-0.8,1l-1.5-0.5&#xd;&#xa;&#x9;&#x9;c0.2-0.7,0.6-1.3,1.2-1.8c0.6-0.4,1.4-0.6,2.4-0.6c0.8,0,1.4,0.1,2,0.4c0.6,0.3,1,0.7,1.2,1.2c0.1,0.3,0.2,0.6,0.3,0.9&#xd;&#xa;&#x9;&#x9;c0,0.3,0,0.6,0,1v5.3h-1.5v-2l0.3,0.3c-0.4,0.7-0.8,1.1-1.4,1.5C90.7,169,90.1,169.2,89.3,169.2z M89.6,167.8&#xd;&#xa;&#x9;&#x9;c0.5,0,0.9-0.1,1.2-0.2c0.3-0.2,0.6-0.4,0.8-0.6c0.2-0.3,0.3-0.5,0.4-0.8s0.1-0.5,0.2-0.9c0-0.3,0-0.6,0-0.8l0.5,0.2&#xd;&#xa;&#x9;&#x9;c-0.5,0.1-1,0.2-1.4,0.2c-0.4,0.1-0.8,0.1-1.2,0.2c-0.3,0.1-0.7,0.1-0.9,0.2c-0.2,0.1-0.4,0.2-0.6,0.3c-0.2,0.1-0.3,0.2-0.4,0.4&#xd;&#xa;&#x9;&#x9;s-0.2,0.4-0.2,0.6c0,0.2,0.1,0.4,0.2,0.6s0.3,0.3,0.5,0.4C88.9,167.8,89.2,167.8,89.6,167.8z"/>
  <path class="st2" d="M95.6,168.9l2.2-3.4h1.8l-2.1,3.4H95.6z M101.3,168.9v-3h-1.7c-0.2,0-0.4,0-0.7,0c-0.3,0-0.5,0-0.8-0.1&#xd;&#xa;&#x9;&#x9;c-0.6-0.1-1.2-0.4-1.6-0.8c-0.4-0.4-0.6-1.1-0.6-1.8s0.2-1.4,0.6-1.8c0.4-0.5,0.9-0.8,1.5-0.9c0.3-0.1,0.5-0.1,0.8-0.1s0.5,0,0.7,0&#xd;&#xa;&#x9;&#x9;h3.4v8.6h-1.6V168.9z M99.4,164.6h1.8v-2.9h-1.8c-0.1,0-0.3,0-0.4,0c-0.2,0-0.3,0-0.5,0.1c-0.2,0-0.3,0.1-0.5,0.3&#xd;&#xa;&#x9;&#x9;c-0.2,0.1-0.3,0.3-0.4,0.5c-0.1,0.2-0.1,0.4-0.1,0.6c0,0.4,0.1,0.7,0.3,0.9c0.2,0.2,0.5,0.4,0.7,0.5c0.2,0,0.3,0.1,0.5,0.1&#xd;&#xa;&#x9;&#x9;C99.2,164.6,99.3,164.6,99.4,164.6z"/>
 </g>
 <g>
  <path class="st2" d="M32.4,192.3v-11.6h1.7v5.4l4.8-5.4H41l-5.1,5.7l5.5,5.9h-2.2l-5.2-5.5v5.5H32.4z"/>
  <path class="st2" d="M45.7,192.5c-0.9,0-1.6-0.2-2.3-0.6c-0.6-0.4-1.1-0.9-1.5-1.6c-0.3-0.7-0.5-1.5-0.5-2.4c0-0.9,0.2-1.7,0.5-2.4&#xd;&#xa;&#x9;&#x9;c0.4-0.7,0.8-1.2,1.5-1.6c0.6-0.4,1.4-0.6,2.2-0.6c0.9,0,1.6,0.2,2.3,0.6c0.6,0.4,1.1,0.9,1.5,1.6c0.3,0.7,0.5,1.5,0.5,2.4&#xd;&#xa;&#x9;&#x9;c0,0.9-0.2,1.7-0.5,2.4c-0.4,0.7-0.8,1.2-1.5,1.6C47.3,192.3,46.5,192.5,45.7,192.5z M45.7,190.9c0.8,0,1.5-0.3,1.9-0.8&#xd;&#xa;&#x9;&#x9;c0.4-0.6,0.6-1.3,0.6-2.2c0-0.9-0.2-1.6-0.6-2.2c-0.4-0.5-1-0.8-1.9-0.8c-0.6,0-1,0.1-1.4,0.4c-0.4,0.3-0.6,0.6-0.8,1.1&#xd;&#xa;&#x9;&#x9;c-0.2,0.4-0.3,1-0.3,1.6c0,0.9,0.2,1.6,0.6,2.2C44.2,190.7,44.9,190.9,45.7,190.9z"/>
  <path class="st2" d="M51.7,196.1v-12.5h1.5v6.2h0.2v6.3H51.7z M55.8,192.5c-0.8,0-1.5-0.2-2.1-0.6c-0.6-0.4-1-1-1.3-1.6&#xd;&#xa;&#x9;&#x9;c-0.3-0.7-0.4-1.5-0.4-2.3c0-0.9,0.1-1.6,0.4-2.3c0.3-0.7,0.7-1.2,1.3-1.6c0.6-0.4,1.3-0.6,2.1-0.6c0.8,0,1.5,0.2,2.1,0.6&#xd;&#xa;&#x9;&#x9;c0.6,0.4,1,0.9,1.4,1.6c0.3,0.7,0.5,1.5,0.5,2.3c0,0.9-0.2,1.6-0.5,2.3c-0.3,0.7-0.8,1.2-1.4,1.6C57.3,192.3,56.6,192.5,55.8,192.5&#xd;&#xa;&#x9;&#x9;z M55.5,191c0.5,0,1-0.1,1.3-0.4c0.4-0.3,0.6-0.6,0.8-1.1c0.2-0.5,0.3-1,0.3-1.6c0-0.6-0.1-1.1-0.3-1.5c-0.2-0.5-0.4-0.8-0.8-1.1&#xd;&#xa;&#x9;&#x9;c-0.4-0.3-0.8-0.4-1.4-0.4c-0.5,0-1,0.1-1.3,0.4c-0.3,0.3-0.6,0.6-0.8,1.1c-0.2,0.5-0.2,1-0.2,1.6c0,0.6,0.1,1.1,0.2,1.6&#xd;&#xa;&#x9;&#x9;c0.2,0.5,0.4,0.8,0.8,1.1S55,191,55.5,191z"/>
  <path class="st2" d="M68.8,183.6v8.7h-1.6v-6l-4.3,6h-1.4v-8.7h1.6v5.9l4.4-5.9H68.8z"/>
  <path class="st2" d="M70.4,194.2v-3.3c0.5,0,0.8-0.2,1-0.5c0.2-0.3,0.4-0.9,0.5-1.6c0.1-0.5,0.1-1,0.2-1.5c0.1-0.5,0.1-1.1,0.1-1.7&#xd;&#xa;&#x9;&#x9;c0-0.6,0.1-1.3,0.1-2h6.2v7.3h0.9v3.3h-1.6v-1.9H72v1.9H70.4z M72.8,190.9h4.1v-6h-3c0,0.4,0,0.7-0.1,1.1c0,0.4-0.1,0.7-0.1,1.1&#xd;&#xa;&#x9;&#x9;c0,0.4-0.1,0.7-0.1,1.1c0,0.3-0.1,0.6-0.1,0.9c-0.1,0.4-0.1,0.8-0.2,1.1S73,190.7,72.8,190.9z"/>
  <path class="st2" d="M84.8,192.5c-0.9,0-1.6-0.2-2.3-0.6c-0.6-0.4-1.1-0.9-1.5-1.6c-0.3-0.7-0.5-1.5-0.5-2.4c0-0.9,0.2-1.7,0.5-2.4&#xd;&#xa;&#x9;&#x9;c0.4-0.7,0.8-1.2,1.5-1.6c0.6-0.4,1.4-0.6,2.2-0.6c0.9,0,1.6,0.2,2.3,0.6c0.6,0.4,1.1,0.9,1.5,1.6c0.3,0.7,0.5,1.5,0.5,2.4&#xd;&#xa;&#x9;&#x9;c0,0.9-0.2,1.7-0.5,2.4c-0.4,0.7-0.8,1.2-1.5,1.6C86.4,192.3,85.7,192.5,84.8,192.5z M84.8,190.9c0.8,0,1.5-0.3,1.9-0.8&#xd;&#xa;&#x9;&#x9;c0.4-0.6,0.6-1.3,0.6-2.2c0-0.9-0.2-1.6-0.6-2.2c-0.4-0.5-1-0.8-1.9-0.8c-0.6,0-1,0.1-1.4,0.4c-0.4,0.3-0.6,0.6-0.8,1.1&#xd;&#xa;&#x9;&#x9;c-0.2,0.4-0.3,1-0.3,1.6c0,0.9,0.2,1.6,0.6,2.2C83.4,190.7,84,190.9,84.8,190.9z"/>
  <path class="st2" d="M90.8,196.1v-12.5h1.5v6.2h0.2v6.3H90.8z M94.9,192.5c-0.8,0-1.5-0.2-2.1-0.6c-0.6-0.4-1-1-1.3-1.6&#xd;&#xa;&#x9;&#x9;c-0.3-0.7-0.4-1.5-0.4-2.3c0-0.9,0.1-1.6,0.4-2.3c0.3-0.7,0.7-1.2,1.3-1.6c0.6-0.4,1.3-0.6,2.1-0.6c0.8,0,1.5,0.2,2.1,0.6&#xd;&#xa;&#x9;&#x9;c0.6,0.4,1,0.9,1.4,1.6c0.3,0.7,0.5,1.5,0.5,2.3c0,0.9-0.2,1.6-0.5,2.3c-0.3,0.7-0.8,1.2-1.4,1.6C96.4,192.3,95.7,192.5,94.9,192.5&#xd;&#xa;&#x9;&#x9;z M94.7,191c0.5,0,1-0.1,1.3-0.4c0.4-0.3,0.6-0.6,0.8-1.1c0.2-0.5,0.3-1,0.3-1.6c0-0.6-0.1-1.1-0.3-1.5c-0.2-0.5-0.4-0.8-0.8-1.1&#xd;&#xa;&#x9;&#x9;c-0.4-0.3-0.8-0.4-1.4-0.4c-0.5,0-1,0.1-1.3,0.4c-0.3,0.3-0.6,0.6-0.8,1.1c-0.2,0.5-0.2,1-0.2,1.6c0,0.6,0.1,1.1,0.2,1.6&#xd;&#xa;&#x9;&#x9;c0.2,0.5,0.4,0.8,0.8,1.1C93.7,190.9,94.1,191,94.7,191z"/>
 </g>
 <g>
  <path class="st2" d="M31.8,136.6V133c0.4,0,0.7-0.1,1-0.3c0.3-0.2,0.5-0.5,0.6-0.8c0.2-0.4,0.3-0.8,0.4-1.2&#xd;&#xa;&#x9;&#x9;c0.1-0.5,0.1-0.9,0.2-1.4c0.1-0.7,0.1-1.3,0.2-2c0-0.6,0.1-1.3,0.1-2c0-0.7,0.1-1.4,0.1-2.3l7.4,0v10h0.9v3.5H41v-1.9h-7.5v1.9&#xd;&#xa;&#x9;&#x9;H31.8z M34.6,133h5.5v-8.4l-4.2,0c0,0.6-0.1,1.1-0.1,1.7c0,0.5-0.1,1.1-0.1,1.6s-0.1,1.1-0.1,1.7c-0.1,0.6-0.1,1.1-0.2,1.5&#xd;&#xa;&#x9;&#x9;c-0.1,0.4-0.2,0.8-0.3,1.1C35,132.5,34.8,132.8,34.6,133z"/>
  <path class="st2" d="M48.3,134.9c-0.9,0-1.6-0.2-2.3-0.6s-1.2-0.9-1.5-1.6c-0.4-0.7-0.5-1.5-0.5-2.4c0-0.9,0.2-1.8,0.5-2.5&#xd;&#xa;&#x9;&#x9;c0.4-0.7,0.9-1.2,1.5-1.6s1.4-0.6,2.2-0.6c0.9,0,1.6,0.2,2.3,0.6c0.6,0.4,1.1,1,1.4,1.7c0.3,0.8,0.4,1.7,0.4,2.7h-1.7v-0.6&#xd;&#xa;&#x9;&#x9;c0-1-0.2-1.8-0.6-2.2c-0.4-0.5-0.9-0.7-1.7-0.7c-0.8,0-1.5,0.3-1.9,0.8c-0.4,0.5-0.6,1.3-0.6,2.3c0,1,0.2,1.7,0.6,2.2&#xd;&#xa;&#x9;&#x9;c0.4,0.5,1,0.8,1.8,0.8c0.5,0,1-0.1,1.4-0.4c0.4-0.2,0.7-0.6,0.9-1l1.6,0.5c-0.3,0.8-0.8,1.4-1.5,1.8&#xd;&#xa;&#x9;&#x9;C49.9,134.7,49.1,134.9,48.3,134.9z M45.2,130.8v-1.3h6.2v1.3H45.2z"/>
  <path class="st2" d="M56.1,134.6v-7.2h-3v-1.5h7.6v1.5h-3v7.2H56.1z"/>
  <path class="st2" d="M65.8,134.9c-0.9,0-1.6-0.2-2.3-0.6c-0.6-0.4-1.1-0.9-1.4-1.6c-0.3-0.7-0.5-1.5-0.5-2.4c0-0.9,0.2-1.7,0.5-2.4&#xd;&#xa;&#x9;&#x9;c0.3-0.7,0.8-1.2,1.4-1.6c0.6-0.4,1.4-0.6,2.3-0.6c0.9,0,1.8,0.2,2.4,0.7c0.7,0.5,1.1,1.1,1.3,1.9l-1.7,0.5&#xd;&#xa;&#x9;&#x9;c-0.2-0.5-0.4-0.9-0.8-1.1c-0.4-0.3-0.8-0.4-1.3-0.4c-0.6,0-1,0.1-1.4,0.4s-0.6,0.6-0.8,1.1c-0.2,0.5-0.3,1-0.3,1.5&#xd;&#xa;&#x9;&#x9;c0,0.9,0.2,1.6,0.6,2.2c0.4,0.6,1,0.8,1.8,0.8c0.5,0,1-0.1,1.3-0.4c0.3-0.2,0.6-0.6,0.8-1.1l1.7,0.4c-0.3,0.8-0.8,1.5-1.4,2&#xd;&#xa;&#x9;&#x9;C67.5,134.6,66.7,134.9,65.8,134.9z"/>
  <path class="st2" d="M71.2,134.6l0-8.7h1.7v4.2l3.4-4.2h2.1l-3.6,4.3l4,4.3h-2.3l-3.6-4.2v4.2H71.2z"/>
  <path class="st2" d="M82.1,134.9c-0.6,0-1.2-0.1-1.6-0.4c-0.4-0.2-0.8-0.6-1-0.9c-0.2-0.4-0.3-0.8-0.3-1.3c0-0.4,0.1-0.8,0.2-1.2&#xd;&#xa;&#x9;&#x9;c0.2-0.3,0.4-0.6,0.7-0.8c0.3-0.2,0.7-0.4,1.1-0.6c0.4-0.1,0.8-0.2,1.3-0.3c0.5-0.1,1-0.2,1.5-0.2c0.5-0.1,1.1-0.2,1.6-0.2&#xd;&#xa;&#x9;&#x9;l-0.6,0.3c0-0.7-0.1-1.2-0.4-1.5c-0.3-0.3-0.8-0.5-1.5-0.5c-0.5,0-0.9,0.1-1.3,0.3c-0.4,0.2-0.6,0.6-0.8,1l-1.6-0.5&#xd;&#xa;&#x9;&#x9;c0.2-0.7,0.6-1.3,1.2-1.8c0.6-0.4,1.4-0.7,2.4-0.7c0.8,0,1.5,0.1,2,0.4c0.6,0.3,1,0.7,1.3,1.3c0.1,0.3,0.2,0.6,0.3,0.9&#xd;&#xa;&#x9;&#x9;c0,0.3,0,0.7,0,1v5.3h-1.5v-2l0.3,0.3c-0.4,0.7-0.8,1.2-1.4,1.5C83.6,134.7,82.9,134.9,82.1,134.9z M82.4,133.5&#xd;&#xa;&#x9;&#x9;c0.5,0,0.9-0.1,1.2-0.3c0.3-0.2,0.6-0.4,0.8-0.6c0.2-0.3,0.3-0.5,0.4-0.8c0.1-0.3,0.1-0.5,0.2-0.9c0-0.3,0-0.6,0-0.8l0.5,0.2&#xd;&#xa;&#x9;&#x9;c-0.5,0.1-1,0.2-1.4,0.2c-0.4,0.1-0.8,0.1-1.2,0.2c-0.4,0.1-0.7,0.1-0.9,0.2c-0.2,0.1-0.4,0.2-0.6,0.3c-0.2,0.1-0.3,0.2-0.4,0.4&#xd;&#xa;&#x9;&#x9;c-0.1,0.2-0.2,0.4-0.2,0.6c0,0.2,0.1,0.4,0.2,0.6c0.1,0.2,0.3,0.3,0.5,0.5C81.7,133.4,82,133.5,82.4,133.5z"/>
  <path class="st2" d="M88.3,134.6l2.2-3.4h1.8l-2.2,3.4H88.3z M94.1,134.6v-3h-1.7c-0.2,0-0.4,0-0.7,0c-0.3,0-0.5,0-0.8-0.1&#xd;&#xa;&#x9;&#x9;c-0.6-0.1-1.2-0.4-1.6-0.8c-0.4-0.4-0.7-1.1-0.7-1.9c0-0.8,0.2-1.4,0.6-1.8c0.4-0.5,0.9-0.8,1.6-0.9c0.3-0.1,0.6-0.1,0.8-0.1&#xd;&#xa;&#x9;&#x9;c0.3,0,0.5,0,0.7,0h3.4l0,8.7H94.1z M92.2,130.3h1.9v-3h-1.9c-0.1,0-0.3,0-0.4,0c-0.2,0-0.3,0-0.5,0.1c-0.2,0-0.3,0.1-0.5,0.3&#xd;&#xa;&#x9;&#x9;c-0.2,0.1-0.3,0.3-0.4,0.5c-0.1,0.2-0.1,0.4-0.1,0.7c0,0.4,0.1,0.7,0.3,0.9c0.2,0.2,0.5,0.4,0.7,0.5c0.2,0,0.3,0.1,0.5,0.1&#xd;&#xa;&#x9;&#x9;C92,130.3,92.1,130.3,92.2,130.3z"/>
 </g>
 <g>
  <path class="st2" d="M32.4,36V24.4h7.4V26h-5.7v10H32.4z"/>
  <path class="st2" d="M42.4,36.2c-0.6,0-1.2-0.1-1.6-0.4c-0.4-0.2-0.8-0.6-1-0.9c-0.2-0.4-0.3-0.8-0.3-1.3c0-0.4,0.1-0.8,0.2-1.2&#xd;&#xa;&#x9;&#x9;c0.2-0.3,0.4-0.6,0.7-0.8c0.3-0.2,0.7-0.4,1.1-0.6c0.4-0.1,0.8-0.2,1.3-0.3c0.5-0.1,1-0.2,1.5-0.2c0.5-0.1,1.1-0.2,1.6-0.2&#xd;&#xa;&#x9;&#x9;l-0.6,0.3c0-0.7-0.1-1.2-0.4-1.5c-0.3-0.3-0.8-0.5-1.5-0.5c-0.5,0-0.9,0.1-1.3,0.3c-0.4,0.2-0.6,0.6-0.8,1l-1.6-0.5&#xd;&#xa;&#x9;&#x9;c0.2-0.7,0.6-1.3,1.2-1.8c0.6-0.4,1.4-0.7,2.4-0.7c0.8,0,1.5,0.1,2,0.4c0.6,0.3,1,0.7,1.3,1.3c0.1,0.3,0.2,0.6,0.3,0.9&#xd;&#xa;&#x9;&#x9;c0,0.3,0,0.7,0,1V36h-1.5v-2l0.3,0.3c-0.4,0.7-0.8,1.2-1.4,1.5C43.9,36.1,43.2,36.2,42.4,36.2z M42.7,34.8c0.5,0,0.9-0.1,1.2-0.3&#xd;&#xa;&#x9;&#x9;c0.3-0.2,0.6-0.4,0.8-0.6c0.2-0.3,0.3-0.5,0.4-0.8c0.1-0.3,0.1-0.5,0.2-0.9c0-0.3,0-0.6,0-0.8l0.5,0.2c-0.5,0.1-1,0.2-1.4,0.2&#xd;&#xa;&#x9;&#x9;C44,32,43.6,32,43.3,32.1c-0.4,0.1-0.7,0.1-0.9,0.2c-0.2,0.1-0.4,0.2-0.6,0.3c-0.2,0.1-0.3,0.2-0.4,0.4c-0.1,0.2-0.2,0.4-0.2,0.6&#xd;&#xa;&#x9;&#x9;c0,0.2,0.1,0.4,0.2,0.6c0.1,0.2,0.3,0.3,0.5,0.5C42.1,34.8,42.4,34.8,42.7,34.8z"/>
  <path class="st2" d="M49.1,39.8V27.3h1.5v6.2h0.2v6.3H49.1z M53.2,36.2c-0.8,0-1.5-0.2-2.1-0.6c-0.6-0.4-1-1-1.3-1.6&#xd;&#xa;&#x9;&#x9;c-0.3-0.7-0.4-1.5-0.4-2.3c0-0.9,0.1-1.6,0.4-2.3c0.3-0.7,0.7-1.2,1.3-1.6c0.6-0.4,1.3-0.6,2.1-0.6c0.8,0,1.5,0.2,2.1,0.6&#xd;&#xa;&#x9;&#x9;c0.6,0.4,1,0.9,1.4,1.6c0.3,0.7,0.5,1.5,0.5,2.3c0,0.9-0.2,1.6-0.5,2.3c-0.3,0.7-0.8,1.2-1.4,1.6C54.7,36,54,36.2,53.2,36.2z&#xd;&#xa;&#x9;&#x9; M53,34.7c0.5,0,1-0.1,1.3-0.4c0.4-0.3,0.6-0.6,0.8-1.1c0.2-0.5,0.3-1,0.3-1.6c0-0.6-0.1-1.1-0.3-1.5c-0.2-0.5-0.4-0.8-0.8-1.1&#xd;&#xa;&#x9;&#x9;c-0.4-0.3-0.8-0.4-1.4-0.4c-0.5,0-1,0.1-1.3,0.4c-0.3,0.3-0.6,0.6-0.8,1.1c-0.2,0.5-0.2,1-0.2,1.6c0,0.6,0.1,1.1,0.2,1.6&#xd;&#xa;&#x9;&#x9;c0.2,0.5,0.4,0.8,0.8,1.1C52,34.6,52.4,34.7,53,34.7z"/>
  <path class="st2" d="M58.3,37.9v-3.3c0.5,0,0.8-0.2,1-0.5c0.2-0.3,0.4-0.9,0.5-1.6c0.1-0.5,0.1-1,0.2-1.5c0.1-0.5,0.1-1.1,0.1-1.7&#xd;&#xa;&#x9;&#x9;c0-0.6,0.1-1.3,0.1-2h6.2v7.3h0.9v3.3h-1.6V36h-5.8v1.9H58.3z M60.7,34.6h4.1v-6h-3c0,0.4,0,0.7-0.1,1.1c0,0.4-0.1,0.7-0.1,1.1&#xd;&#xa;&#x9;&#x9;c0,0.4-0.1,0.7-0.1,1.1c0,0.3-0.1,0.6-0.1,0.9c-0.1,0.4-0.1,0.8-0.2,1.1S60.9,34.4,60.7,34.6z"/>
  <path class="st2" d="M72.8,36.2c-0.9,0-1.6-0.2-2.3-0.6c-0.7-0.4-1.2-0.9-1.5-1.6c-0.4-0.7-0.5-1.5-0.5-2.4c0-0.9,0.2-1.8,0.5-2.5&#xd;&#xa;&#x9;&#x9;c0.4-0.7,0.9-1.2,1.5-1.6c0.6-0.4,1.4-0.6,2.2-0.6c0.9,0,1.6,0.2,2.3,0.6c0.6,0.4,1.1,1,1.4,1.7s0.4,1.7,0.4,2.7H75v-0.6&#xd;&#xa;&#x9;&#x9;c0-1-0.2-1.8-0.6-2.2c-0.4-0.5-0.9-0.7-1.7-0.7c-0.8,0-1.5,0.3-1.9,0.8c-0.4,0.5-0.6,1.3-0.6,2.3c0,1,0.2,1.7,0.6,2.2&#xd;&#xa;&#x9;&#x9;c0.4,0.5,1,0.8,1.8,0.8c0.5,0,1-0.1,1.4-0.4c0.4-0.2,0.7-0.6,0.9-1l1.6,0.5c-0.3,0.8-0.8,1.4-1.5,1.8C74.4,36,73.6,36.2,72.8,36.2z&#xd;&#xa;&#x9;&#x9; M69.7,32.1v-1.3h6.2v1.3H69.7z"/>
  <path class="st2" d="M78.5,39.8V27.3H80v6.2h0.2v6.3H78.5z M82.6,36.2c-0.8,0-1.5-0.2-2.1-0.6c-0.6-0.4-1-1-1.3-1.6&#xd;&#xa;&#x9;&#x9;c-0.3-0.7-0.4-1.5-0.4-2.3c0-0.9,0.1-1.6,0.4-2.3c0.3-0.7,0.7-1.2,1.3-1.6c0.6-0.4,1.3-0.6,2.1-0.6c0.8,0,1.5,0.2,2.1,0.6&#xd;&#xa;&#x9;&#x9;c0.6,0.4,1,0.9,1.4,1.6c0.3,0.7,0.5,1.5,0.5,2.3c0,0.9-0.2,1.6-0.5,2.3c-0.3,0.7-0.8,1.2-1.4,1.6C84.1,36,83.4,36.2,82.6,36.2z&#xd;&#xa;&#x9;&#x9; M82.3,34.7c0.5,0,1-0.1,1.3-0.4c0.4-0.3,0.6-0.6,0.8-1.1c0.2-0.5,0.3-1,0.3-1.6c0-0.6-0.1-1.1-0.3-1.5c-0.2-0.5-0.4-0.8-0.8-1.1&#xd;&#xa;&#x9;&#x9;c-0.4-0.3-0.8-0.4-1.4-0.4c-0.5,0-1,0.1-1.3,0.4c-0.3,0.3-0.6,0.6-0.8,1.1c-0.2,0.5-0.2,1-0.2,1.6c0,0.6,0.1,1.1,0.2,1.6&#xd;&#xa;&#x9;&#x9;c0.2,0.5,0.4,0.8,0.8,1.1C81.3,34.6,81.8,34.7,82.3,34.7z"/>
  <path class="st2" d="M92,36.2c-0.9,0-1.6-0.2-2.3-0.6c-0.6-0.4-1.1-0.9-1.5-1.6c-0.3-0.7-0.5-1.5-0.5-2.4c0-0.9,0.2-1.7,0.5-2.4&#xd;&#xa;&#x9;&#x9;c0.4-0.7,0.8-1.2,1.5-1.6c0.6-0.4,1.4-0.6,2.2-0.6c0.9,0,1.6,0.2,2.3,0.6c0.6,0.4,1.1,0.9,1.5,1.6c0.3,0.7,0.5,1.5,0.5,2.4&#xd;&#xa;&#x9;&#x9;c0,0.9-0.2,1.7-0.5,2.4s-0.8,1.2-1.5,1.6C93.7,36,92.9,36.2,92,36.2z M92,34.6c0.8,0,1.5-0.3,1.9-0.8c0.4-0.6,0.6-1.3,0.6-2.2&#xd;&#xa;&#x9;&#x9;c0-0.9-0.2-1.6-0.6-2.2c-0.4-0.5-1-0.8-1.9-0.8c-0.6,0-1,0.1-1.4,0.4c-0.4,0.3-0.6,0.6-0.8,1.1c-0.2,0.4-0.3,1-0.3,1.6&#xd;&#xa;&#x9;&#x9;c0,0.9,0.2,1.6,0.6,2.2C90.6,34.4,91.2,34.6,92,34.6z"/>
  <path class="st2" d="M101.6,36.2c-0.8,0-1.5-0.2-2.1-0.5s-1-0.9-1.4-1.5c-0.3-0.7-0.5-1.5-0.6-2.4c0-0.5,0-1,0-1.5&#xd;&#xa;&#x9;&#x9;c0-0.6,0.1-1.1,0.2-1.6c0.1-0.5,0.2-1,0.3-1.3c0.2-0.4,0.4-0.7,0.6-1.1c0.3-0.3,0.6-0.6,0.9-0.8c0.3-0.2,0.7-0.4,1.1-0.6&#xd;&#xa;&#x9;&#x9;c0.4-0.1,0.9-0.2,1.3-0.3c0.5-0.1,0.9-0.1,1.4-0.2c0.5-0.1,0.9-0.1,1.4-0.2l0.2,1.5c-0.3,0.1-0.6,0.1-1,0.2c-0.4,0-0.8,0.1-1.2,0.1&#xd;&#xa;&#x9;&#x9;c-0.4,0.1-0.8,0.1-1.2,0.2c-0.4,0.1-0.7,0.2-1,0.4c-0.4,0.2-0.7,0.6-0.9,1.1c-0.2,0.5-0.3,1-0.4,1.5c0.3-0.5,0.8-0.9,1.3-1.1&#xd;&#xa;&#x9;&#x9;c0.5-0.2,1-0.3,1.6-0.3c0.8,0,1.4,0.2,2,0.5c0.6,0.4,1,0.9,1.3,1.5c0.3,0.6,0.5,1.3,0.5,2.1c0,0.9-0.2,1.6-0.5,2.2&#xd;&#xa;&#x9;&#x9;c-0.4,0.6-0.8,1.1-1.5,1.5C103.2,36.1,102.5,36.2,101.6,36.2z M101.7,34.6c0.8,0,1.4-0.2,1.7-0.7c0.4-0.5,0.6-1.1,0.6-1.9&#xd;&#xa;&#x9;&#x9;c0-0.8-0.2-1.5-0.6-1.9c-0.4-0.5-1-0.7-1.7-0.7c-0.8,0-1.3,0.2-1.7,0.7c-0.4,0.5-0.6,1.1-0.6,1.9c0,0.8,0.2,1.5,0.6,1.9&#xd;&#xa;&#x9;&#x9;C100.4,34.4,101,34.6,101.7,34.6z"/>
 </g>
 <g>
  <path class="st2" d="M37.2,110.9c-1.2,0-2.1-0.3-3-0.8c-0.8-0.5-1.4-1.2-1.9-2.1c-0.4-0.9-0.6-2-0.6-3.2c0-1.2,0.2-2.2,0.6-3.2&#xd;&#xa;&#x9;&#x9;c0.4-0.9,1.1-1.6,1.9-2.1c0.8-0.5,1.8-0.8,3-0.8c1.3,0,2.4,0.3,3.3,1c0.9,0.7,1.5,1.6,1.8,2.7l-1.7,0.5c-0.2-0.8-0.6-1.4-1.2-1.9&#xd;&#xa;&#x9;&#x9;c-0.6-0.5-1.3-0.7-2.2-0.7c-0.8,0-1.5,0.2-2.1,0.6c-0.5,0.4-1,0.9-1.2,1.6c-0.3,0.7-0.4,1.4-0.4,2.3c0,0.9,0.1,1.7,0.4,2.3&#xd;&#xa;&#x9;&#x9;c0.3,0.7,0.7,1.2,1.2,1.6c0.5,0.4,1.2,0.6,2.1,0.6c0.9,0,1.7-0.2,2.2-0.7c0.6-0.5,1-1.1,1.2-1.9l1.7,0.5c-0.3,1.1-1,2.1-1.8,2.7&#xd;&#xa;&#x9;&#x9;C39.7,110.5,38.6,110.9,37.2,110.9z"/>
  <path class="st2" d="M45.3,110.6l1.5-3l-4-8.6h1.9l3,6.8l3.1-6.8h1.8l-5.4,11.6H45.3z"/>
  <path class="st2" d="M61.2,110.9c-1.2,0-2.1-0.3-3-0.8c-0.8-0.5-1.4-1.2-1.9-2.1c-0.4-0.9-0.6-2-0.6-3.2c0-1.2,0.2-2.2,0.6-3.2&#xd;&#xa;&#x9;&#x9;c0.4-0.9,1.1-1.6,1.9-2.1c0.8-0.5,1.8-0.8,3-0.8c1.3,0,2.4,0.3,3.3,1c0.9,0.7,1.5,1.6,1.8,2.7l-1.7,0.5c-0.2-0.8-0.6-1.4-1.2-1.9&#xd;&#xa;&#x9;&#x9;c-0.6-0.5-1.3-0.7-2.2-0.7c-0.8,0-1.5,0.2-2.1,0.6c-0.5,0.4-1,0.9-1.2,1.6c-0.3,0.7-0.4,1.4-0.4,2.3c0,0.9,0.1,1.7,0.4,2.3&#xd;&#xa;&#x9;&#x9;c0.3,0.7,0.7,1.2,1.2,1.6c0.5,0.4,1.2,0.6,2.1,0.6c0.9,0,1.7-0.2,2.2-0.7c0.6-0.5,1-1.1,1.2-1.9l1.7,0.5c-0.3,1.1-1,2.1-1.8,2.7&#xd;&#xa;&#x9;&#x9;C63.7,110.5,62.6,110.9,61.2,110.9z"/>
  <path class="st2" d="M68.2,110.6v-8.7h7.3v8.7h-1.7v-7.1h-4v7.1H68.2z"/>
  <path class="st2" d="M80.2,110.9c-0.6,0-1.2-0.1-1.6-0.4c-0.4-0.2-0.8-0.6-1-0.9c-0.2-0.4-0.3-0.8-0.3-1.3c0-0.4,0.1-0.8,0.2-1.2&#xd;&#xa;&#x9;&#x9;c0.2-0.3,0.4-0.6,0.7-0.8c0.3-0.2,0.7-0.4,1.1-0.6c0.4-0.1,0.8-0.2,1.3-0.3c0.5-0.1,1-0.2,1.5-0.2c0.5-0.1,1.1-0.2,1.6-0.2&#xd;&#xa;&#x9;&#x9;l-0.6,0.3c0-0.7-0.1-1.2-0.4-1.5c-0.3-0.3-0.8-0.5-1.5-0.5c-0.5,0-0.9,0.1-1.3,0.3c-0.4,0.2-0.6,0.6-0.8,1l-1.6-0.5&#xd;&#xa;&#x9;&#x9;c0.2-0.7,0.6-1.3,1.2-1.8c0.6-0.4,1.4-0.7,2.4-0.7c0.8,0,1.5,0.1,2,0.4c0.6,0.3,1,0.7,1.3,1.3c0.1,0.3,0.2,0.6,0.3,0.9&#xd;&#xa;&#x9;&#x9;c0,0.3,0,0.7,0,1v5.3h-1.5v-2l0.3,0.3c-0.4,0.7-0.8,1.2-1.4,1.5C81.7,110.7,81,110.9,80.2,110.9z M80.5,109.5&#xd;&#xa;&#x9;&#x9;c0.5,0,0.9-0.1,1.2-0.3c0.3-0.2,0.6-0.4,0.8-0.6c0.2-0.3,0.3-0.5,0.4-0.8c0.1-0.3,0.1-0.5,0.2-0.9c0-0.3,0-0.6,0-0.8l0.5,0.2&#xd;&#xa;&#x9;&#x9;c-0.5,0.1-1,0.2-1.4,0.2c-0.4,0.1-0.8,0.1-1.2,0.2c-0.4,0.1-0.7,0.1-0.9,0.2c-0.2,0.1-0.4,0.2-0.6,0.3c-0.2,0.1-0.3,0.2-0.4,0.4&#xd;&#xa;&#x9;&#x9;c-0.1,0.2-0.2,0.4-0.2,0.6c0,0.2,0.1,0.4,0.2,0.6c0.1,0.2,0.3,0.3,0.5,0.5C79.8,109.4,80.1,109.5,80.5,109.5z"/>
  <path class="st2" d="M86.1,110.6v-1.4c0.3,0.1,0.6,0,0.7,0s0.3-0.2,0.4-0.4c0.1-0.2,0.2-0.5,0.2-0.8c0.1-0.5,0.2-1,0.2-1.7&#xd;&#xa;&#x9;&#x9;c0.1-0.6,0.1-1.3,0.2-2c0.1-0.7,0.1-1.5,0.1-2.3h6.2v8.7h-1.7v-7.1h-3c0,0.4-0.1,0.9-0.1,1.3c0,0.5-0.1,0.9-0.1,1.4&#xd;&#xa;&#x9;&#x9;c0,0.5-0.1,0.9-0.2,1.3c-0.1,0.4-0.1,0.8-0.2,1c-0.1,0.6-0.3,1-0.5,1.4c-0.2,0.3-0.5,0.6-0.9,0.7C87.2,110.8,86.7,110.8,86.1,110.6&#xd;&#xa;&#x9;&#x9;z"/>
  <path class="st2" d="M96.5,110.6v-8.7h1.7v3h1.7c0.2,0,0.5,0,0.8,0c0.3,0,0.5,0,0.7,0.1c0.5,0.1,0.9,0.3,1.2,0.5s0.6,0.5,0.8,0.9&#xd;&#xa;&#x9;&#x9;c0.2,0.4,0.3,0.8,0.3,1.4c0,0.8-0.2,1.4-0.6,1.8c-0.4,0.4-0.9,0.7-1.6,0.9c-0.2,0-0.5,0.1-0.8,0.1c-0.3,0-0.6,0-0.8,0H96.5z&#xd;&#xa;&#x9;&#x9; M98.2,109.3h1.9c0.1,0,0.3,0,0.5,0c0.2,0,0.3,0,0.5-0.1c0.3-0.1,0.5-0.2,0.7-0.5c0.2-0.2,0.3-0.5,0.3-0.9c0-0.4-0.1-0.7-0.3-0.9&#xd;&#xa;&#x9;&#x9;c-0.2-0.2-0.5-0.4-0.8-0.5c-0.1,0-0.3-0.1-0.4-0.1c-0.2,0-0.3,0-0.4,0h-1.9V109.3z"/>
  <path class="st2" d="M105.2,110.6v-8.7h1.7v3.5h4.2v-3.5h1.7v8.7h-1.7v-3.6h-4.2v3.6H105.2z"/>
  <path class="st2" d="M114.6,110.6l2.2-3.4h1.8l-2.2,3.4H114.6z M120.3,110.6v-3h-1.7c-0.2,0-0.4,0-0.7,0c-0.3,0-0.5,0-0.8-0.1&#xd;&#xa;&#x9;&#x9;c-0.6-0.1-1.2-0.4-1.6-0.8c-0.4-0.4-0.7-1.1-0.7-1.9c0-0.8,0.2-1.4,0.6-1.8c0.4-0.5,0.9-0.8,1.6-0.9c0.3-0.1,0.6-0.1,0.8-0.1&#xd;&#xa;&#x9;&#x9;c0.3,0,0.5,0,0.7,0h3.4l0,8.7H120.3z M118.5,106.3h1.9v-3h-1.9c-0.1,0-0.3,0-0.4,0c-0.2,0-0.3,0-0.5,0.1c-0.2,0-0.3,0.1-0.5,0.3&#xd;&#xa;&#x9;&#x9;c-0.2,0.1-0.3,0.3-0.4,0.5c-0.1,0.2-0.1,0.4-0.1,0.7c0,0.4,0.1,0.7,0.3,0.9c0.2,0.2,0.5,0.4,0.7,0.5c0.2,0,0.3,0.1,0.5,0.1&#xd;&#xa;&#x9;&#x9;C118.2,106.3,118.3,106.3,118.5,106.3z"/>
 </g>
</svg>
